<svg width="32" height="32" viewBox="0 0 32 32" fill="none" xmlns="http://www.w3.org/2000/svg">
<path d="M8.63994 11.7688L3.56244 16L8.63994 20.2313C8.74375 20.3144 8.82994 20.4173 8.89347 20.5341C8.95701 20.6509 8.9966 20.7793 9.00995 20.9116C9.02329 21.0439 9.01012 21.1775 8.9712 21.3046C8.93228 21.4318 8.86839 21.5499 8.78327 21.652C8.69815 21.7542 8.59352 21.8384 8.47548 21.8996C8.35745 21.9608 8.22839 21.9979 8.09585 22.0086C7.96332 22.0194 7.82997 22.0036 7.70361 21.9622C7.57725 21.9208 7.46041 21.8546 7.35994 21.7675L1.35994 16.7675C1.24736 16.6737 1.15678 16.5562 1.09462 16.4235C1.03246 16.2907 1.00024 16.1459 1.00024 15.9994C1.00024 15.8528 1.03246 15.708 1.09462 15.5753C1.15678 15.4426 1.24736 15.3251 1.35994 15.2313L7.35994 10.2313C7.56383 10.0615 7.82679 9.97972 8.09098 10.0039C8.35518 10.028 8.59896 10.1561 8.76869 10.36C8.93843 10.5639 9.02023 10.8269 8.99608 11.091C8.97194 11.3552 8.84383 11.599 8.63994 11.7688ZM30.6399 15.2313L24.6399 10.2313C24.539 10.1472 24.4225 10.0839 24.297 10.0449C24.1716 10.0058 24.0397 9.99191 23.9089 10.0039C23.7781 10.0158 23.6509 10.0534 23.5346 10.1145C23.4183 10.1756 23.3152 10.259 23.2312 10.36C23.0615 10.5639 22.9797 10.8269 23.0038 11.091C23.028 11.3552 23.1561 11.599 23.3599 11.7688L28.4374 16L23.3599 20.2313C23.2561 20.3144 23.1699 20.4173 23.1064 20.5341C23.0429 20.6509 23.0033 20.7793 22.9899 20.9116C22.9766 21.0439 22.9898 21.1775 23.0287 21.3046C23.0676 21.4318 23.1315 21.5499 23.2166 21.652C23.3017 21.7542 23.4064 21.8384 23.5244 21.8996C23.6424 21.9608 23.7715 21.9979 23.904 22.0086C24.0366 22.0194 24.1699 22.0036 24.2963 21.9622C24.4226 21.9208 24.5395 21.8546 24.6399 21.7675L30.6399 16.7675C30.7525 16.6737 30.8431 16.5562 30.9053 16.4235C30.9674 16.2907 30.9996 16.1459 30.9996 15.9994C30.9996 15.8528 30.9674 15.708 30.9053 15.5753C30.8431 15.4426 30.7525 15.3251 30.6399 15.2313ZM20.3412 4.06C20.2178 4.01519 20.0867 3.99512 19.9555 4.00096C19.8243 4.00679 19.6955 4.03841 19.5766 4.09401C19.4576 4.14961 19.3507 4.2281 19.2621 4.325C19.1734 4.4219 19.1048 4.53531 19.0599 4.65875L11.0599 26.6588C11.0149 26.7823 10.9947 26.9134 11.0005 27.0448C11.0062 27.1761 11.0378 27.305 11.0934 27.4242C11.149 27.5433 11.2276 27.6503 11.3246 27.739C11.4216 27.8277 11.5351 27.8964 11.6587 27.9413C11.7683 27.9802 11.8837 28.0001 11.9999 28C12.2053 28 12.4057 27.9368 12.5739 27.8189C12.742 27.7011 12.8699 27.5343 12.9399 27.3413L20.9399 5.34125C20.9848 5.21781 21.0048 5.08675 20.999 4.95555C20.9932 4.82436 20.9615 4.69559 20.9059 4.57662C20.8503 4.45764 20.7718 4.35078 20.6749 4.26214C20.578 4.1735 20.4646 4.10481 20.3412 4.06Z" fill="#F3F3F3"/>
</svg>
