<svg width="32" height="32" viewBox="0 0 32 32" fill="none" xmlns="http://www.w3.org/2000/svg">
<path d="M28.5001 21.8749C28.3858 21.9401 28.2599 21.982 28.1294 21.9984C27.999 22.0148 27.8666 22.0054 27.7398 21.9705C27.613 21.9357 27.4943 21.8762 27.3906 21.7955C27.2868 21.7147 27.2 21.6143 27.1351 21.4999L24.7601 17.3499C23.3793 18.2835 21.8562 18.9868 20.2501 19.4324L20.9838 23.8349C21.0055 23.9645 21.0014 24.0971 20.9717 24.2252C20.9421 24.3532 20.8875 24.4741 20.8111 24.581C20.7348 24.6879 20.6381 24.7788 20.5266 24.8483C20.415 24.9178 20.2909 24.9647 20.1613 24.9862C20.108 24.9949 20.0541 24.9995 20.0001 24.9999C19.7635 24.9996 19.5347 24.9154 19.3544 24.7623C19.174 24.6092 19.0538 24.3971 19.0151 24.1637L18.2938 19.8412C16.7728 20.0529 15.2298 20.0529 13.7088 19.8412L12.9876 24.1637C12.9487 24.3975 12.8282 24.6099 12.6473 24.7631C12.4664 24.9162 12.2371 25.0002 12.0001 24.9999C11.9448 24.9997 11.8896 24.9951 11.8351 24.9862C11.7054 24.9647 11.5813 24.9178 11.4698 24.8483C11.3583 24.7788 11.2616 24.6879 11.1852 24.581C11.1088 24.4741 11.0543 24.3532 11.0246 24.2252C10.995 24.0971 10.9909 23.9645 11.0126 23.8349L11.7501 19.4324C10.1446 18.9854 8.62231 18.2809 7.24256 17.3462L4.87506 21.4999C4.74245 21.731 4.52348 21.8999 4.26632 21.9696C4.00916 22.0392 3.73488 22.0038 3.50381 21.8712C3.27274 21.7386 3.10381 21.5196 3.03419 21.2625C2.96457 21.0053 2.99995 20.731 3.13256 20.4999L5.63256 16.1249C4.75443 15.3663 3.94696 14.5295 3.22006 13.6249C3.12941 13.5237 3.06033 13.4051 3.01705 13.2763C2.97377 13.1475 2.95719 13.0112 2.96833 12.8758C2.97947 12.7404 3.01808 12.6087 3.08182 12.4887C3.14556 12.3687 3.23308 12.2629 3.33905 12.1779C3.44502 12.0928 3.56721 12.0303 3.69816 11.994C3.8291 11.9578 3.96607 11.9486 4.10069 11.967C4.2353 11.9855 4.36475 12.0311 4.48113 12.1013C4.5975 12.1714 4.69837 12.2645 4.77756 12.3749C6.85256 14.9424 10.4826 17.9999 16.0001 17.9999C21.5176 17.9999 25.1476 14.9387 27.2226 12.3749C27.3008 12.2623 27.4015 12.1669 27.5182 12.0948C27.6349 12.0227 27.7652 11.9754 27.901 11.9558C28.0368 11.9362 28.1752 11.9448 28.3075 11.981C28.4399 12.0172 28.5634 12.0802 28.6703 12.1662C28.7772 12.2521 28.8653 12.3592 28.9291 12.4806C28.9929 12.6021 29.031 12.7354 29.0411 12.8722C29.0511 13.0091 29.0329 13.1465 28.9876 13.276C28.9423 13.4055 28.8708 13.5243 28.7776 13.6249C28.0507 14.5295 27.2432 15.3663 26.3651 16.1249L28.8651 20.4999C28.9322 20.614 28.976 20.7402 28.9939 20.8713C29.0119 21.0024 29.0037 21.1358 28.9697 21.2637C28.9358 21.3916 28.8768 21.5115 28.7962 21.6164C28.7155 21.7213 28.6149 21.8092 28.5001 21.8749Z" fill="#F3F3F3"/>
</svg>
